<svg xmlns="http://www.w3.org/2000/svg" width="61" height="30" viewBox="0 0 61 30"><g><g><path fill="#e5e5e5" d="M56.553 4.416a14.86 14.86 0 0 1 4.408 10.602c0 4.007-1.567 7.776-4.412 10.6a14.932 14.932 0 0 1-10.629 4.394 14.964 14.964 0 0 1-10.635-4.393l-4.79-4.581-4.858 4.643c-2.774 2.773-6.555 4.331-10.57 4.331A14.944 14.944 0 0 1 4.436 25.62 14.848 14.848 0 0 1 .028 15.024c0-4.008 1.566-7.77 4.41-10.601A14.956 14.956 0 0 1 15.069.03c4.017 0 7.798 1.557 10.636 4.393l4.787 4.58 4.86-4.65C38.132 1.587 41.906.03 45.92.03c4.014 0 7.787 1.557 10.632 4.386zM24.21 15.024l-4.599-4.407c-1.264-1.256-2.855-1.912-4.543-1.912-1.689 0-3.28.656-4.47 1.85a6.253 6.253 0 0 0-1.863 4.466 6.26 6.26 0 0 0 1.855 4.46c2.396 2.386 6.563 2.386 8.955 0zm28.043-.014a6.274 6.274 0 0 0-1.855-4.466c-2.392-2.38-6.563-2.38-8.958.007l-4.662 4.46 4.6 4.406c2.52 2.51 6.624 2.454 9.016.063a6.276 6.276 0 0 0 1.86-4.47z"/></g></g></svg>