<svg xmlns="http://www.w3.org/2000/svg" width="45" height="46" viewBox="0 0 45 46"><g><g><path fill="#e5e5e5" d="M0 27.058c.222-8.755 3.764-10.973 7.513-13.321 3.55-2.225 7.209-4.527 7.002-12.293a22.613 22.613 0 0 1 6.33-1.386c.494 9.785-3.61 12.39-8.357 15.362-4.649 2.91-9.84 6.196-11.085 16.437A22.878 22.878 0 0 1 0 27.058zm.29-9.518A23.066 23.066 0 0 1 12.475 2.327c-.06 5.894-2.736 7.59-6.045 9.664C4.275 13.34 1.957 14.795.29 17.54zm2.898 17.742c.39-11.841 5.464-15.037 10.38-18.117 4.853-3.04 9.848-6.204 9.318-17.164 1.306.021 2.584.152 3.829.385.267 13.316-4.475 17.112-9.492 21.117-4.619 3.689-9.382 7.498-10.187 18.413a23.133 23.133 0 0 1-3.848-4.634zm18.911 10.706a22.754 22.754 0 0 1-5.917-.89c.327-11.611 4.79-15.221 9.518-19.036 5.024-4.053 10.207-8.244 10.272-21.65A23.093 23.093 0 0 1 40.2 8.424c.23 12.272-4.092 15.792-8.675 19.49-4.378 3.534-8.888 7.203-9.427 18.073zM45 27.19a23.052 23.052 0 0 1-12.254 16.368c.332-7.071 3.178-8.835 6.46-10.846 2.084-1.276 4.32-2.649 5.794-5.522zM30.668 44.481a22.665 22.665 0 0 1-6.516 1.45c.523-9.823 4.47-13.038 8.656-16.412 4.398-3.549 8.92-7.234 9.403-18.204a22.897 22.897 0 0 1 2.47 5.993l-.105.004c.405 9.456-2.917 11.49-6.433 13.645-3.447 2.111-7.35 4.504-7.475 13.524zm-16.495-.074A22.797 22.797 0 0 1 9 41.54c.42-11.158 4.826-14.699 9.495-18.426 5.127-4.093 10.423-8.321 10.277-22.242a22.72 22.72 0 0 1 5.146 2.194c.278 13.497-4.47 17.338-9.496 21.392-4.797 3.87-9.744 7.894-10.25 19.95z"/></g></g></svg>