<svg xmlns="http://www.w3.org/2000/svg" width="51" height="50" viewBox="0 0 51 50"><g><g><path fill="#e5e5e5" d="M41.203 13.344V3.958a22.369 22.369 0 0 1 8.755 12.422h-5.724a3.037 3.037 0 0 1-3.031-3.036zM14.368 29.368c-2.563 0-4.586.961-5.703 2.566a22.249 22.249 0 0 1-.543-18.3l9.5 9.514a5.136 5.136 0 0 1 1.51 3.653v2.863c-1.626-.439-2.943-.25-4.764-.296zm5.39-8.36L9.556 10.793a22.265 22.265 0 0 1 9.096-8.451l11.55 11.567a1.676 1.676 0 0 1 0 2.37l-4.886 4.894a2.561 2.561 0 0 0-.555 2.794 2.55 2.55 0 0 0 2.364 1.582h2.955c1.846 0 2.712 1.389 3.086 1.675.456.458.703 1.065.696 1.711-.014 1.09-.698 1.623-.865 1.833l-2.125 2.62c-1.276-.476-1.97-.21-6.629-.286-.652 0-1.257-.355-1.617-.95a4.935 4.935 0 0 0-.472-.657v-4.693a8.143 8.143 0 0 0-2.396-5.792zm12.581-9.24L21.68 1.093a22.189 22.189 0 0 1 16.503 1.1v11.151c0 3.342 2.715 6.062 6.052 6.062h6.316c.117.921.174 1.85.174 2.779 0 4.08-1.092 7.99-3.138 11.399-1.69.831-10.89 5.245-13.97 5.586a4.59 4.59 0 0 0-.417-3.853l2.087-2.574a5.406 5.406 0 0 0 .017-7.658c-.36-.264-1.942-2.564-5.223-2.564h-1.838l4.097-4.102a4.704 4.704 0 0 0 0-6.65zM7.863 33.64c-.288 1.212-.107.712-.163 16.359H1.51c-.834 0-1.51-.677-1.51-1.513V35.152c0-.836.676-1.513 1.51-1.513zm41.032 8.69l-9.198 5.367a16.923 16.923 0 0 1-8.518 2.303H10.722V35.051c0-2.489 2.55-2.758 3.646-2.758h2.377c1.525 0 2.758.533 3.296 1.424.912 1.509 2.483 2.41 4.202 2.41h5.034c1.383 0 2.088 1.684 1.104 2.67-.733.733-.615.362-9.708.458-.834 0-1.51.678-1.51 1.513 0 .836.676 1.513 1.51 1.513h8.604c1.875-.123 5.247.506 9.664-1.459l10.95-5.006c1.806 1.976 1.36 5.14-.996 6.514z"/></g></g></svg>