<svg xmlns="http://www.w3.org/2000/svg" width="55" height="52" viewBox="0 0 55 52"><g><g><path fill="#e5e5e5" d="M55 42.877v8.21a.917.917 0 0 1-1.833 0v-.912h-.917v.912a.917.917 0 0 1-1.833 0v-.912h-1.834V52H41.25V35.579h-11v16.42H6.417v-1.824H4.583v.912a.917.917 0 0 1-1.833 0v-.912h-.917v.912a.917.917 0 0 1-1.833 0v-8.21a.917.917 0 0 1 1.833 0v.912h.917v-.912a.917.917 0 0 1 1.833 0v.912h1.834V23.646l-.725.556a2.762 2.762 0 0 1-3.694-.31c-1.1-1.168-.944-3.029.321-4.014L25.63 1.733 27.5 0l1.871 1.733 23.31 18.145c1.266.985 1.422 2.846.322 4.014a2.762 2.762 0 0 1-3.695.31l-.724-.556V43.79h1.834v-.912a.917.917 0 0 1 1.833 0v.912h.917v-.912a.917.917 0 0 1 1.833 0zM2.75 45.614h-.917v2.737h.917zm3.667 0H4.583v2.737h1.834zm11.916-4.562H13.75v3.649h4.583zm0-5.473H13.75v3.649h4.583zm6.417 5.473h-4.583v3.649h4.583zm0-5.473h-4.583v3.649h4.583zm0-9.123h-11v3.649h11zm0-3.65h-11v1.825h11zm16.5 5.474h-11v1.825h11zm0-5.474h-11v3.65h11zm9.167 22.808h-1.834v2.737h1.834zm2.75 0h-.917v2.737h.917z"/></g></g></svg>