<svg xmlns="http://www.w3.org/2000/svg" width="22" height="16" viewBox="0 0 22 16"><g><g><path fill="#c19f63" d="M21.647 14.615L14.7 7.08l6.87-5.83c.268.412.429.895.429 1.417v10.666c0 .468-.136.902-.353 1.283zM1.44.335C1.83.129 2.273 0 2.75 0h16.5c.477 0 .918.129 1.31.337L11 8.447zM20.7 15.59c-.421.257-.916.41-1.45.41H2.75a2.778 2.778 0 0 1-1.45-.41l7.034-7.632 2.213 1.879c.13.11.291.163.453.163a.699.699 0 0 0 .452-.163l2.213-1.88zM7.3 7.078L.353 14.616A2.575 2.575 0 0 1 0 13.332V2.666C0 2.144.16 1.661.428 1.25z"/></g></g></svg>