<svg xmlns="http://www.w3.org/2000/svg" width="76" height="55" viewBox="0 0 76 55"><g><g><path fill="#c19f63" d="M9.993 24.86H29.98c1.104 0 1.999.892 1.999 1.993v7.975a1.996 1.996 0 0 1-1.999 1.994H9.993a1.996 1.996 0 0 1-1.999-1.994v-7.975c0-1.1.895-1.993 1.999-1.993zm19.487 2.492H10.493v6.978H29.48zM76 47.07l-8.514 7.875-7.255-6.25-5.497 4.904-2.078-8.802H1.998c-1.1 0-1.999-.898-1.999-1.994V1.933C0 .835.9-.063 2-.063h61.96c1.099 0 1.998.898 1.998 1.994v30.484l7.745 2.273-4.777 5.323zM2.499 9.658h60.96V2.43H2.499zm49.568 32.647l-3.558-15.013 14.95 4.386V12.15H2.499v30.155zm20.337 4.705l-6.916-6.898 3.718-4.147L51.926 30.9l2.698 11.404 1.57 6.648 3.997-3.568 7.235 6.21z"/></g></g></svg>