<svg xmlns="http://www.w3.org/2000/svg" width="68" height="68" viewBox="0 0 68 68"><g><g><path fill="#c19f63" d="M53.66 18.434V2.656H2.655v62.687H53.66V54.227c0-.757.638-1.381 1.408-1.328.718.053 1.249.664 1.249 1.381v11.063A2.664 2.664 0 0 1 53.659 68H2.656A2.664 2.664 0 0 1 0 65.343V2.656A2.664 2.664 0 0 1 2.656 0H53.66a2.664 2.664 0 0 1 2.657 2.656v15.725c0 .704-.531 1.328-1.235 1.367a1.327 1.327 0 0 1-1.422-1.314zm-13.283.956a12.19 12.19 0 0 1-3.838 8.885c-.053.053-.093.094-.146.133a12.21 12.21 0 0 1-8.235 3.201c-3.161 0-6.057-1.209-8.235-3.2a.686.686 0 0 1-.146-.134 12.19 12.19 0 0 1-3.839-8.885c0-6.733 5.486-12.219 12.22-12.219 6.734 0 12.22 5.486 12.22 12.22zM33.936 27a6.594 6.594 0 0 0-5.778-3.36A6.594 6.594 0 0 0 22.38 27a9.526 9.526 0 0 0 11.556 0zm-5.778-6.016a2.131 2.131 0 0 0 2.125-2.125v-.863a2.131 2.131 0 0 0-2.125-2.126 2.131 2.131 0 0 0-2.125 2.126v.863c0 1.169.956 2.125 2.125 2.125zm9.536-1.594c0-5.272-4.29-9.562-9.563-9.562-5.273 0-9.563 4.29-9.563 9.562a9.55 9.55 0 0 0 1.873 5.671 9.304 9.304 0 0 1 3.918-3.28 4.763 4.763 0 0 1-.996-2.922v-.863a4.779 4.779 0 0 1 4.782-4.782 4.779 4.779 0 0 1 4.781 4.782v.863a4.763 4.763 0 0 1-.996 2.922 9.305 9.305 0 0 1 3.918 3.28 9.268 9.268 0 0 0 1.846-5.67zM36.658 59.5c0 .73-.597 1.328-1.328 1.328h-7.172c-.73 0-1.328-.598-1.328-1.329 0-.73.597-1.327 1.328-1.327h7.172c.73 0 1.328.597 1.328 1.327zm0-7.438c0 .73-.597 1.328-1.328 1.328H16.47c-.73 0-1.328-.597-1.328-1.328 0-.73.597-1.328 1.328-1.328h18.86c.73 0 1.328.598 1.328 1.328zm0-7.437c0 .73-.597 1.327-1.328 1.327H16.47c-.73 0-1.328-.597-1.328-1.327s.597-1.329 1.328-1.329h18.86c.73 0 1.328.598 1.328 1.329zm-24.532-7.438c0 .358-.132.69-.385.943a1.398 1.398 0 0 1-.943.385c-.358 0-.69-.133-.943-.385a1.372 1.372 0 0 1-.385-.943c0-.359.133-.69.385-.943.253-.239.598-.385.943-.385.359 0 .69.132.943.385.24.253.385.584.385.943zm0 7.438c0 .358-.132.69-.385.942-.252.24-.597.385-.943.385-.358 0-.69-.132-.943-.385a1.37 1.37 0 0 1-.385-.942c0-.36.133-.691.385-.944.253-.238.598-.385.943-.385.359 0 .69.133.943.385.24.253.385.585.385.944zm0 7.437c0 .359-.132.69-.385.943-.252.24-.597.385-.943.385-.358 0-.69-.133-.943-.385a1.371 1.371 0 0 1-.385-.943c0-.359.133-.69.385-.943.253-.239.598-.385.943-.385.359 0 .69.133.943.385.24.252.385.584.385.943zm24.532-14.875c0 .73-.597 1.328-1.328 1.328H16.47c-.73 0-1.328-.597-1.328-1.328 0-.73.597-1.328 1.328-1.328h18.86c.73 0 1.328.598 1.328 1.328zm30.576-12.259l-16.71 28.953c-.092.16-.212.306-.358.412l-8.54 6.282c-.226.16-.505.253-.784.253-.225 0-.451-.053-.664-.173a1.357 1.357 0 0 1-.65-1.301l1.181-10.532c.027-.187.08-.36.173-.519L57.591 19.35a5.561 5.561 0 0 1 3.387-2.603 5.551 5.551 0 0 1 4.237.558 5.55 5.55 0 0 1 2.019 7.623zM46.965 53.35l-3.838-2.218-.611 5.499zM62.32 28.17l-5.06-2.922-13.415 23.229 5.06 2.922zm2.949-6.786a2.934 2.934 0 0 0-3.586-2.072 2.933 2.933 0 0 0-1.78 1.368l-1.315 2.27 5.06 2.923 1.315-2.272a3.005 3.005 0 0 0 .306-2.217z"/></g></g></svg>