<svg xmlns="http://www.w3.org/2000/svg" width="74" height="74" viewBox="0 0 74 74"><g><g><path fill="#c19f63" d="M73.999 1.233V70.3a3.673 3.673 0 0 1-3.577 3.7H16.033c-6.127-.007-11.093-4.973-11.1-11.1v-2.467c0-.681.552-1.233 1.233-1.233h9.867V37H18.5v22.2h41.933c.68 0 1.233.552 1.233 1.233V62.9c0 .294.014.588.044.881.003.018.009.036.009.053a8.646 8.646 0 0 0 7.654 7.647c.018.008.036.008.054.008.215.022.433.027.651.033.106.002.212.011.318.011a1.214 1.214 0 0 0 1.136-1.233V2.466H18.5v17.267h-2.467v-18.5c0-.682.552-1.234 1.233-1.234h55.5c.68 0 1.233.552 1.233 1.234zM63.321 71.536a10.87 10.87 0 0 1-1.69-1.705l-.04-.053a11.174 11.174 0 0 1-.65-.913c-.024-.043-.046-.084-.07-.123a10.424 10.424 0 0 1-.51-.911c-.03-.056-.057-.12-.086-.18a10.833 10.833 0 0 1-.727-2.024c-.026-.101-.054-.203-.076-.305-.066-.293-.115-.59-.156-.888-.014-.106-.035-.21-.047-.317-.045-.404-.068-.81-.07-1.217v-1.234H7.4V62.9a8.643 8.643 0 0 0 8.634 8.633zM40.699 34.533H6.166a6.167 6.167 0 0 1 0-12.333H40.7c.328 0 .641.13.872.36l4.934 4.934a1.234 1.234 0 0 1 0 1.744l-4.934 4.934a1.234 1.234 0 0 1-.872.361zm-1.195-6.167l.877 3.508 3.508-3.508-3.508-3.508zm-29.638 3.7h28.021l-.616-2.466H12.333v-2.467h24.938l.616-2.467H9.867zm-3.7 0H7.4v-7.4H6.166a3.7 3.7 0 0 0 0 7.4zm21.329 20.606a1.234 1.234 0 0 1 0-1.744l36.999-37a1.233 1.233 0 0 1 2.105.872v37c0 .68-.552 1.233-1.233 1.233h-37c-.327 0-.64-.13-.871-.36zm3.848-2.106h3.19V48.1h2.466v2.467h2.467V48.1h2.467v2.467h2.466V48.1h2.467v2.467h2.467V48.1h2.466v2.467h2.467V48.1h2.467v2.467h2.466V48.1h2.467v2.467h2.467V48.1h-2.467v-2.466h2.467v-2.467h-2.467V40.7h2.467v-2.467h-2.467v-2.467h2.467V33.3h-2.467v-2.467h2.467v-2.467h-2.467v-2.467h2.467v-2.466h-2.467v-2.467h2.467v-3.189zm14.016-5.295a1.233 1.233 0 0 1 0-1.743l11.735-11.735a1.233 1.233 0 0 1 2.105.871V44.4c0 .68-.552 1.233-1.233 1.233H46.23c-.327 0-.64-.13-.872-.362zm3.85-2.105h7.524v-7.523zM32.066 7.399h24.667v2.467H32.066zm-3.7 4.934h32.067V14.8H28.366zm-7.4 25.9h7.4V40.7h-7.4zm0 4.933H25.9v2.467h-4.934z"/></g></g></svg>