<svg xmlns="http://www.w3.org/2000/svg" width="83" height="53" viewBox="0 0 83 53"><g><g><path fill="#c19f63" d="M83 29.306v13.99c0 .72-.584 1.31-1.297 1.31h-4.215v.081c0 4.582-3.696 8.312-8.235 8.312s-8.235-3.73-8.235-8.312v-.082H31.725v.082c0 4.582-3.696 8.312-8.235 8.312-4.54 0-8.236-3.73-8.236-8.312v-.082H8.235c-1.491 0-2.69-1.227-2.69-2.716v-2.88H1.296A1.307 1.307 0 0 1 0 37.699c0-.72.584-1.308 1.297-1.308h12.482c.714 0 1.297.589 1.297 1.309s-.583 1.309-1.297 1.309H8.154v2.88c0 .049.033.082.081.082h7.457c1.119-3.256 4.183-5.596 7.781-5.596 3.6 0 6.663 2.34 7.782 5.596H58.18v-9.883c0-.72.584-1.31 1.297-1.31s1.297.59 1.297 1.31v9.883h.632c1.118-3.256 4.182-5.596 7.781-5.596 3.599 0 6.663 2.34 7.782 5.596h3.404v-5.776h-1.475c-2.238 0-4.07-1.833-4.07-4.107v-2.799c0-.72.584-1.309 1.298-1.309h4.036c-.551-1.734-2.156-2.978-4.036-2.978H60.79v1.49c0 .719-.584 1.309-1.297 1.309s-1.297-.59-1.297-1.31V2.7c0-.05-.032-.082-.08-.082H8.218c-.049 0-.081.032-.081.082V26.49c0 .72-.584 1.31-1.297 1.31s-1.297-.59-1.297-1.31V2.716c0-1.506 1.216-2.717 2.691-2.717h49.881c1.492 0 2.691 1.228 2.691 2.717v2.88H70.6c3.015 0 5.463 2.47 5.463 5.514v1.407a1.31 1.31 0 0 1-1.022 1.276l2.156 8.673c3.275.491 5.804 3.37 5.804 6.84zm-22.177-18.13h12.645v-.082c0-1.588-1.28-2.88-2.853-2.88h-9.792zm0 11.208H74.49l-2.123-8.574H60.823zM29.1 44.687c0-3.125-2.53-5.678-5.626-5.678-3.096 0-5.625 2.553-5.625 5.678s2.513 5.678 5.625 5.678c3.113 0 5.626-2.553 5.626-5.678zm45.747 0c0-3.125-2.513-5.678-5.625-5.678-3.097 0-5.626 2.553-5.626 5.678s2.513 5.678 5.626 5.678c3.112 0 5.625-2.553 5.625-5.678zm5.56-11.11v-2.979h-2.95v1.49c0 .818.664 1.489 1.475 1.489zM55.28 37.684c0 .72-.583 1.309-1.297 1.309h-19.42a1.307 1.307 0 0 1-1.297-1.31c0-.72.583-1.308 1.297-1.308h19.42c.714 0 1.297.588 1.297 1.309zM22 32.088c0 .72-.584 1.308-1.298 1.308H4.07a1.307 1.307 0 0 1-1.297-1.308c0-.72.584-1.31 1.297-1.31H20.7c.73 0 1.297.59 1.297 1.31z"/></g></g></svg>